<svg width="30" height="31" viewBox="0 0 30 31" fill="none" xmlns="http://www.w3.org/2000/svg">
<path d="M6.875 21.7892C7.91053 21.7892 8.75 20.9497 8.75 19.9142C8.75 18.8787 7.91053 18.0392 6.875 18.0392C5.83947 18.0392 5 18.8787 5 19.9142C5 20.9497 5.83947 21.7892 6.875 21.7892Z" fill="#374957"/>
<path d="M23.75 4.289H6.25C4.59301 4.29099 3.00445 4.9501 1.83277 6.12178C0.661102 7.29345 0.00198482 8.88201 0 10.539L0 20.539C0.00198482 22.196 0.661102 23.7846 1.83277 24.9562C3.00445 26.1279 4.59301 26.787 6.25 26.789H23.75C25.407 26.787 26.9956 26.1279 28.1672 24.9562C29.3389 23.7846 29.998 22.196 30 20.539V10.539C29.998 8.88201 29.3389 7.29345 28.1672 6.12178C26.9956 4.9501 25.407 4.29099 23.75 4.289ZM6.25 6.789H23.75C24.7446 6.789 25.6984 7.18409 26.4017 7.88735C27.1049 8.59061 27.5 9.54444 27.5 10.539H2.5C2.5 9.54444 2.89509 8.59061 3.59835 7.88735C4.30161 7.18409 5.25544 6.789 6.25 6.789ZM23.75 24.289H6.25C5.25544 24.289 4.30161 23.8939 3.59835 23.1907C2.89509 22.4874 2.5 21.5336 2.5 20.539V13.039H27.5V20.539C27.5 21.5336 27.1049 22.4874 26.4017 23.1907C25.6984 23.8939 24.7446 24.289 23.75 24.289Z" fill="#374957"/>
</svg>
